<?xml version="1.0" standalone="no"?>
<!DOCTYPE svg PUBLIC "-//W3C//DTD SVG 20010904//EN"
 "http://www.w3.org/TR/2001/REC-SVG-20010904/DTD/svg10.dtd">
<svg version="1.0" xmlns="http://www.w3.org/2000/svg"
 width="500.000000pt" height="500.000000pt" viewBox="0 0 500.000000 500.000000"
 preserveAspectRatio="xMidYMid meet">
<metadata>
Created by potrace 1.16, written by Peter Selinger 2001-2019
</metadata>
<g transform="translate(0.000000,500.000000) scale(0.100000,-0.100000)"
fill="#000000" stroke="none">
<path d="M0 2500 l0 -2500 2500 0 2500 0 0 2500 0 2500 -2500 0 -2500 0 0
-2500z m2278 586 l32 -17 -29 -57 c-29 -58 -29 -58 -70 -54 -37 4 -42 1 -51
-23 -5 -14 -10 -58 -10 -96 l0 -69 55 0 55 0 0 -65 0 -65 -55 0 -55 0 0 -175
0 -175 -85 0 -85 0 0 174 0 175 -32 3 c-33 3 -33 3 -36 66 l-3 62 34 0 34 0 7
93 c12 173 81 254 207 244 31 -3 70 -12 87 -21z m552 -391 l0 -405 -80 0 c-78
0 -80 0 -80 25 l0 24 -37 -25 c-48 -32 -70 -37 -148 -32 -81 5 -135 41 -179
119 -27 47 -31 64 -31 129 0 65 4 82 31 129 17 30 49 68 73 85 38 27 52 31
119 34 67 3 83 0 125 -22 l47 -25 0 184 0 185 80 0 80 0 0 -405z m1558 386
c20 -10 47 -30 59 -43 26 -27 53 -88 53 -118 0 -20 -5 -20 -275 -20 l-275 0 0
100 0 100 200 0 c178 0 205 -2 238 -19z m-2588 -26 c36 -19 50 -43 50 -88 0
-72 -74 -116 -138 -83 -38 20 -52 44 -52 88 0 35 21 68 55 86 28 16 51 15 85
-3z m-840 -70 l0 -75 -135 0 -136 0 3 -77 3 -78 128 -3 127 -3 0 -74 0 -75
-130 0 -131 0 3 -77 3 -78 133 -3 132 -3 0 -74 0 -75 -220 0 -220 0 0 385 0
385 220 0 220 0 0 -75z m2820 -125 l0 -90 50 0 50 0 0 -65 0 -65 -50 0 -50 0
0 -92 c0 -51 4 -99 9 -107 6 -9 20 -12 40 -9 31 4 32 3 48 -51 8 -31 18 -61
20 -67 12 -32 -144 -46 -201 -19 -58 28 -77 79 -84 220 l-5 124 -31 3 c-31 3
-31 4 -34 66 l-3 62 36 0 35 0 0 90 0 90 85 0 85 0 0 -90z m-516 -105 c44 -23
46 -24 46 -5 0 18 7 20 80 20 l80 0 0 -240 0 -240 -80 0 c-78 0 -80 0 -80 25
l0 24 -37 -25 c-48 -32 -70 -37 -148 -32 -81 5 -135 41 -179 119 -27 47 -31
64 -31 129 0 64 4 83 29 128 29 51 73 94 118 112 13 5 53 9 89 9 52 1 76 -4
113 -24z m1010 0 c44 -23 46 -24 46 -5 0 18 7 20 80 20 l80 0 0 -240 0 -240
-80 0 c-78 0 -80 0 -80 25 l0 24 -37 -25 c-48 -32 -70 -37 -148 -32 -81 5
-135 41 -179 119 -27 47 -31 64 -31 129 0 64 4 83 29 128 29 51 73 94 118 112
13 5 53 9 89 9 52 1 76 -4 113 -24z m-3007 -41 l41 -56 42 56 42 56 95 0 c73
0 93 -3 87 -12 -4 -7 -43 -59 -86 -115 l-79 -103 92 -112 c51 -62 97 -119 102
-125 7 -10 -12 -13 -90 -13 l-99 0 -49 65 c-27 36 -52 65 -56 65 -4 0 -28 -29
-55 -65 l-49 -65 -97 0 c-54 0 -98 2 -98 5 0 3 43 57 95 121 52 63 95 120 95
125 0 6 -36 57 -80 114 -44 57 -80 106 -80 109 0 3 42 6 93 6 l93 0 41 -56z
m573 -184 l0 -240 -85 0 -85 0 0 240 0 240 85 0 85 0 0 -240z"/>
<path d="M2501 2626 c-69 -38 -67 -162 4 -194 83 -38 165 13 165 103 0 53 -53
105 -106 105 -22 -1 -50 -7 -63 -14z"/>
<path d="M3141 2626 c-69 -38 -67 -162 4 -194 83 -38 165 13 165 103 0 53 -53
105 -106 105 -22 -1 -50 -7 -63 -14z"/>
<path d="M4151 2626 c-69 -38 -67 -162 4 -194 83 -38 165 13 165 103 0 53 -53
105 -106 105 -22 -1 -50 -7 -63 -14z"/>
</g>
</svg>
